<?xml version="1.0" encoding="utf-8"?>
<!-- Generator: Adobe Illustrator 22.1.0, SVG Export Plug-In . SVG Version: 6.00 Build 0)  -->
<svg version="1.1" id="Layer_1" xmlns="http://www.w3.org/2000/svg" xmlns:xlink="http://www.w3.org/1999/xlink" x="0px" y="0px"
	 viewBox="0 0 144 46" style="enable-background:new 0 0 144 46;" xml:space="preserve">
<style type="text/css">
	.st0{fill:#403E34;}
	.st1{fill:#F6C025;}
	.st2{fill:#774E98;}
	.st3{fill:#76C3BE;}
	.st4{fill:#D12127;}
</style>
<title>Asset 3</title>
<g id="_24_Grid_Col">
	<path class="st0" d="M143.7,30.9c-0.6-2.6-2.2-4.8-4.5-6c-2.4-1.3-5.2-1.6-7.8-1c-3.4,0.7-6.2,3-7.6,6.1c-1.1,2.3-1.4,4.8-0.8,7.3
		c0.6,3.3,2.7,6,5.7,7.5c2.5,1.3,5.4,1.7,8.2,1.2c2.4-0.4,4.7-1.4,6.7-3c0.3-0.2,0.2-0.2,0.1-0.4L141,38c0-0.1-0.1-0.2-0.2-0.3
		l-0.1,0c-0.6,0.7-1.3,1.2-2.2,1.5c-1.4,0.5-2.8,0.7-4.3,0.5c-0.8-0.1-1.5-0.3-2.2-0.6c-1.1-0.5-1.8-1.5-1.9-2.6
		c-0.1-0.4-0.1-0.4,0.3-0.4h13.1c0.1,0,0.2,0,0.2-0.2C144.1,34.2,144.1,32.5,143.7,30.9z M136.4,31.7h-5.8c-0.1,0-0.2,0-0.2,0
		c0.1-1.5,1.3-2.8,2.9-2.8c0.6-0.1,1.2,0,1.7,0.2c1,0.4,1.6,1.4,1.6,2.5C136.6,31.7,136.5,31.8,136.4,31.7z"/>
	<path class="st0" d="M120.5,39.5h-1.7c-0.2,0-0.2,0-0.2-0.2V4.7c0-0.1,0-0.3,0-0.4c-0.1,0-0.2,0.1-0.3,0.1
		c-2.3,1.3-4.6,2.6-6.9,3.9c-0.2,0.1-0.3,0.3-0.3,0.5c0,5.2,0,10.5,0,15.7v0.3H111l-0.2-0.1c-0.8-0.4-1.6-0.7-2.5-0.9
		c-1.6-0.4-3.3-0.5-4.9-0.2c-3.4,0.7-6.1,3.1-7.2,6.3c-0.6,1.9-0.8,3.9-0.5,5.9c0.2,1.7,0.7,3.4,1.5,4.9c0.6,1.2,1.5,2.3,2.6,3.2
		c2.1,1.7,5,2.3,7.6,1.6c1.6-0.3,3-1.2,4-2.5l0.1-0.1c0.1,0,0.1,0.1,0.1,0.2c0.1,0.3,0.1,0.6,0.3,0.9c0.3,0.8,1.1,1.3,2,1.3
		c2.3,0,4.6,0,6.8,0c0.2,0,0.2,0,0.2-0.2v-5.5C120.8,39.5,120.8,39.5,120.5,39.5z M109.9,38.3c-1.5,1.7-4,1.8-5.6,0.3
		c-0.1,0-0.1-0.1-0.2-0.2c-0.8-0.8-1.4-1.8-1.6-2.9c-0.3-1.4-0.1-3,0.7-4.2c0.3-0.6,0.8-1.1,1.4-1.5c1.4-1.1,3.4-1,4.8,0.1
		c1,0.8,1.7,2,1.9,3.3c0.1,0.4,0.1,0.7,0.1,1.1C111.4,35.8,110.9,37.2,109.9,38.3z"/>
	<path class="st0" d="M53.3,46c-3.4,0-6.6-1.2-9-3.6c-4.3-4-4.6-10.8-0.5-15.1c0,0,0.1-0.1,0.1-0.1c1.8-2,4.3-3.3,6.9-3.8
		c3.2-0.6,6.5-0.1,9.3,1.6c2.5,1.4,4.3,3.7,5.1,6.4c1.1,3.4,0.3,7.1-2,9.9c-1.8,2.3-4.4,3.8-7.3,4.3C55,45.9,54.2,46,53.3,46z
		 M57.8,34.5c0-0.1,0-0.3,0-0.4c-0.1-1.4-0.7-2.7-1.8-3.6c-1.2-1.2-3-1.4-4.5-0.7c-0.8,0.4-1.5,1-2,1.8c-0.7,1.1-1,2.4-0.8,3.8
		c0.1,1.2,0.6,2.4,1.5,3.3c1.6,1.7,4.2,1.8,5.9,0.3c0.1-0.1,0.1-0.1,0.2-0.2C57.3,37.5,57.9,36,57.8,34.5L57.8,34.5z"/>
	<path class="st0" d="M94.7,10.3L94.7,10.3c0.2,0.1,0.3,0.1,0.5,0.2c1.8,1,3.5,2,5.2,3c0.1,0.1,0.3,0.1,0.5,0l5.5-3.1
		c0.1,0,0.2-0.1,0.2-0.2l-1.1-0.6l-4.8-2.8V0c-0.1,0-0.2,0.1-0.4,0.2c-1.8,1-3.5,2-5.3,3c-0.2,0.1-0.3,0.3-0.3,0.5c0,2,0,4,0,6
		c0,0.1,0,0.3,0,0.4L94.4,10L89,6.9c-0.1-0.1-0.3-0.1-0.5,0L83,10.1c-0.1,0-0.2,0.1-0.2,0.2l1.4,0.8l4.5,2.6v6.8l0.3-0.2
		c1.8-1,3.6-2.1,5.4-3.1c0.2-0.1,0.3-0.3,0.3-0.5c0-2,0-4.1,0-6.1C94.8,10.5,94.7,10.4,94.7,10.3z"/>
	<path class="st0" d="M15.8,24.1c0.1,0,0.2,0,0.3-0.1c1.7-0.9,3.4-1.8,5.1-2.7c0.2-0.1,0.3-0.3,0.3-0.4c0-1.5,0-3.1,0-4.6
		c0-0.5,0-0.4-0.4-0.4H0.2C0,15.8,0,15.8,0,16v5.6c0,0.2,0,0.2,0.3,0.2h1.9c0.5,0,0.4-0.1,0.4,0.4V45c0,0.1,0,0.2,0,0.2
		c0,0.2,0,0.2,0.2,0.2h7.1c0.4,0,0.4,0,0.4-0.4V34.8c0-0.4,0-0.4,0.4-0.4h7.9c0.1,0,0.2,0,0.2-0.2c0-0.1,0-0.1,0-0.2v-5.6
		c0-0.5,0.1-0.4-0.5-0.4h-7.7c-0.3,0-0.3,0-0.3-0.3V22c0-0.1,0.1-0.1,0.2-0.1h5.2c0.1,0,0.2,0,0.2,0.2s0,0.5,0,0.7V24.1z"/>
	<path class="st0" d="M76.4,26.1c0-0.1,0-0.2,0-0.3v-1.9c0-0.2,0-0.2-0.2-0.2h-8.7c-0.3,0-0.3,0-0.3,0.2v6.1c0,0.2,0,0.2,0.2,0.2h2
		c0.4,0,0.3,0,0.3,0.3V45c0,0.1,0,0.2,0,0.2c0,0.1,0.1,0.2,0.2,0.2h6.4c0.4,0,0.4,0,0.4-0.4V33.1c0-1.1,0.6-2.2,1.6-2.7
		c1.3-0.8,2.9-0.9,4.3-0.3c1.2,0.4,2,1.6,1.9,2.9v9c0,0.4,0,0.7,0.1,1.1c0.1,0.5,0.2,0.9,0.5,1.4c0.3,0.5,0.8,0.9,1.4,1
		c0.2,0,0.4,0.1,0.7,0.1h6.7c0.1,0,0.1,0,0.1-0.1v-5.7c0-0.3,0-0.3-0.3-0.3h-2.2c-0.3,0-0.3,0-0.3-0.3c0-0.8,0-1.5-0.1-2.2
		c0-2.3,0-4.6,0-6.9c0-0.7-0.1-1.3-0.2-2c-0.2-1.2-0.8-2.4-1.7-3.2c-0.9-0.8-2-1.3-3.2-1.5c-1.2-0.2-2.4-0.2-3.6,0
		c-0.5,0.1-1,0.2-1.5,0.4c-1.4,0.7-2.8,1.4-4.2,2.1C76.6,26,76.5,26.1,76.4,26.1z"/>
	<path class="st0" d="M31.8,27.1v-3.2c0-0.2,0-0.2-0.3-0.3h-8.8c-0.1,0-0.1,0-0.1,0.2V30c0,0.1,0,0.1,0.1,0.1H25
		c0.2,0,0.2,0,0.2,0.2c0,0.1,0,0.2,0,0.2v14.5c0,0.3-0.1,0.3,0.3,0.3h6c0.2,0,0.2,0,0.2-0.2v-7.7c0-0.3,0-0.6,0.1-0.9
		c0.4-2.4,2.1-4.5,4.3-5.5c0.9-0.4,1.8-0.6,2.8-0.5c0.3,0,0.5,0.1,0.8,0.1v-6.8c0-0.3,0-0.3-0.3-0.3c-0.7,0-1.4,0-2.1,0.2
		c-2,0.4-3.9,1.4-5.3,3C32.1,26.8,32,26.9,31.8,27.1z"/>
	<path class="st0" d="M15.8,24.1v-1.3c0-0.2,0-0.5,0-0.7s-0.1-0.2-0.2-0.2h-5.2c-0.1,0-0.2,0-0.2,0.1v5.6c0,0.3,0,0.3,0.3,0.3h7.7
		c0.5,0,0.5-0.1,0.5,0.4V34c0,0.1,0,0.1,0,0.2c0,0.2-0.1,0.2-0.2,0.2h-7.9c-0.4,0-0.4-0.1-0.4,0.4V45c0,0.4,0.1,0.4-0.4,0.4H2.8
		c-0.2,0-0.2-0.1-0.2-0.2c0-0.1,0-0.2,0-0.2V22.3c0-0.5,0.1-0.4-0.4-0.4H0.3c-0.3,0-0.3,0-0.3-0.2V16c0-0.2,0-0.2,0.2-0.2H21
		c0.4,0,0.4-0.1,0.4,0.4c0,1.5,0,3.1,0,4.6c0,0.2-0.1,0.4-0.3,0.4c-1.7,0.9-3.4,1.8-5.1,2.7C16,24,15.9,24,15.8,24.1z"/>
	<path class="st0" d="M76.4,26.1c0.1,0,0.2-0.1,0.3-0.1c1.4-0.7,2.8-1.4,4.2-2.1c0.5-0.2,1-0.4,1.5-0.4c1.2-0.2,2.4-0.2,3.6,0
		c1.2,0.2,2.3,0.7,3.2,1.5c0.9,0.9,1.5,2,1.7,3.2c0.1,0.6,0.2,1.3,0.2,2c0,2.3,0,4.6,0,6.8c0,0.8,0,1.5,0.1,2.2c0,0.3,0,0.3,0.3,0.3
		h2.1c0.3,0,0.3,0,0.3,0.3v5.7c0,0.1,0,0.1-0.1,0.1H87c-0.2,0-0.4,0-0.7-0.1c-0.6-0.1-1.1-0.5-1.4-1c-0.2-0.4-0.4-0.9-0.4-1.4
		c-0.1-0.4-0.1-0.7-0.1-1.1v-9c0.1-1.3-0.7-2.4-1.9-2.8c-1.4-0.6-3-0.5-4.3,0.3c-1,0.5-1.6,1.6-1.6,2.7V45c0,0.4,0,0.4-0.4,0.4h-6.4
		c-0.1,0-0.2,0-0.2-0.2c0-0.1,0-0.2,0-0.2V30.5c0-0.4,0-0.3-0.3-0.3h-2c-0.2,0-0.2,0-0.2-0.2v-6.1c0-0.2,0-0.2,0.3-0.2h8.7
		c0.2,0,0.2,0,0.2,0.2v1.9C76.3,25.9,76.3,26,76.4,26.1z"/>
	<path class="st0" d="M31.8,27.1c0.1-0.2,0.2-0.3,0.4-0.4c1.4-1.5,3.2-2.5,5.3-3c0.7-0.1,1.4-0.2,2.1-0.2c0.3,0,0.3,0,0.3,0.3v6.8
		c-0.3,0-0.5-0.1-0.8-0.1c-1-0.1-1.9,0.1-2.8,0.5c-2.3,1-3.9,3.1-4.3,5.5c-0.1,0.3-0.1,0.6-0.1,0.9v7.7c0,0.2,0,0.2-0.2,0.2h-6
		c-0.4,0-0.3,0-0.3-0.3V30.6c0-0.1,0-0.2,0-0.2c0-0.2-0.1-0.2-0.2-0.2h-2.2c-0.1,0-0.1,0-0.1-0.1v-6.2c0-0.1,0-0.2,0.1-0.2h8.8
		c0.3,0,0.3,0,0.3,0.3V27.1z"/>
	<path class="st1" d="M88.7,13.6l-4.5-2.6l-1.4-0.8c0-0.1,0.1-0.1,0.2-0.2l5.5-3.2c0.1-0.1,0.3-0.1,0.5,0l5.4,3.1l0.3,0.1v0.1l0,0
		c-0.1,0-0.2,0.1-0.3,0.1L88.7,13.6z"/>
	<path class="st2" d="M100.7,6.8l4.8,2.8l1.1,0.6c0,0.1-0.1,0.2-0.2,0.2l-5.5,3.1c-0.1,0.1-0.3,0.1-0.5,0c-1.7-1-3.5-2-5.2-3
		c-0.1-0.1-0.3-0.2-0.5-0.2c0-0.1,0.1-0.1,0.2-0.2l2.5-1.5L100.7,6.8z"/>
	<path class="st3" d="M100.7,6.8l-3.2,1.8L95,10.1c-0.1,0-0.2,0.1-0.2,0.2l0,0v-0.1c0-0.1,0-0.3,0-0.4c0-2,0-4,0-6
		c-0.1-0.2,0-0.4,0.2-0.6c1.8-1,3.6-2,5.3-3c0.1-0.1,0.2-0.1,0.4-0.2V6.8z"/>
	<path class="st4" d="M88.7,13.6l5.7-3.2c0.1-0.1,0.2-0.1,0.3-0.1c0,0.1,0,0.2,0,0.3c0,2.1,0,4.1,0,6.2c0,0.2-0.1,0.4-0.3,0.5
		c-1.8,1-3.6,2-5.4,3.1l-0.3,0.2L88.7,13.6z"/>
</g>
</svg>
